<?xml version="1.0" encoding="utf-8" standalone="no"?>
<!DOCTYPE svg PUBLIC "-//W3C//DTD SVG 1.1//EN"
  "http://www.w3.org/Graphics/SVG/1.1/DTD/svg11.dtd">
<svg xmlns:xlink="http://www.w3.org/1999/xlink" width="711.74044pt" height="279.034375pt" viewBox="0 0 711.74044 279.034375" xmlns="http://www.w3.org/2000/svg" version="1.1">
 <metadata>
  <rdf:RDF xmlns:dc="http://purl.org/dc/elements/1.1/" xmlns:cc="http://creativecommons.org/ns#" xmlns:rdf="http://www.w3.org/1999/02/22-rdf-syntax-ns#">
   <cc:Work>
    <dc:type rdf:resource="http://purl.org/dc/dcmitype/StillImage"/>
    <dc:date>2025-10-28T10:56:36.140388</dc:date>
    <dc:format>image/svg+xml</dc:format>
    <dc:creator>
     <cc:Agent>
      <dc:title>Matplotlib v3.10.6, https://matplotlib.org/</dc:title>
     </cc:Agent>
    </dc:creator>
   </cc:Work>
  </rdf:RDF>
 </metadata>
 <defs>
  <style type="text/css">*{stroke-linejoin: round; stroke-linecap: butt}</style>
 </defs>
 <g id="figure_1">
  <g id="patch_1">
   <path d="M 0 279.034375 
L 711.74044 279.034375 
L 711.74044 0 
L 0 0 
z
" style="fill: #ffffff"/>
  </g>
  <g id="axes_1">
   <g id="patch_2">
    <path d="M 45.478125 241.478125 
L 704.54044 241.478125 
L 704.54044 22.318125 
L 45.478125 22.318125 
z
" style="fill: #ffffff"/>
   </g>
   <g id="patch_3">
    <path d="M 75.435503 31891.983696 
L 81.426979 31891.983696 
L 81.426979 32.279943 
L 75.435503 32.279943 
z
" clip-path="url(#p9fcd285dd4)" style="fill: #87ceeb; stroke: #000000; stroke-linejoin: miter"/>
   </g>
   <g id="patch_4">
    <path d="M 81.426979 31891.983696 
L 87.418454 31891.983696 
L 87.418454 181.142458 
L 81.426979 181.142458 
z
" clip-path="url(#p9fcd285dd4)" style="fill: #87ceeb; stroke: #000000; stroke-linejoin: miter"/>
   </g>
   <g id="patch_5">
    <path d="M 87.418454 31891.983696 
L 93.40993 31891.983696 
L 93.40993 191.03037 
L 87.418454 191.03037 
z
" clip-path="url(#p9fcd285dd4)" style="fill: #87ceeb; stroke: #000000; stroke-linejoin: miter"/>
   </g>
   <g id="patch_6">
    <path d="M 93.40993 31891.983696 
L 99.401405 31891.983696 
L 99.401405 212.454806 
L 93.40993 212.454806 
z
" clip-path="url(#p9fcd285dd4)" style="fill: #87ceeb; stroke: #000000; stroke-linejoin: miter"/>
   </g>
   <g id="patch_7">
    <path d="M 99.401405 31891.983696 
L 105.392881 31891.983696 
L 105.392881 221.985556 
L 99.401405 221.985556 
z
" clip-path="url(#p9fcd285dd4)" style="fill: #87ceeb; stroke: #000000; stroke-linejoin: miter"/>
   </g>
   <g id="patch_8">
    <path d="M 105.392881 31891.983696 
L 111.384357 31891.983696 
L 111.384357 202.924056 
L 105.392881 202.924056 
z
" clip-path="url(#p9fcd285dd4)" style="fill: #87ceeb; stroke: #000000; stroke-linejoin: miter"/>
   </g>
   <g id="patch_9">
    <path d="M 111.384357 31891.983696 
L 117.375832 31891.983696 
L 117.375832 221.985556 
L 111.384357 221.985556 
z
" clip-path="url(#p9fcd285dd4)" style="fill: #87ceeb; stroke: #000000; stroke-linejoin: miter"/>
   </g>
   <g id="patch_10">
    <path d="M 117.375832 31891.983696 
L 123.367308 31891.983696 
L 123.367308 31891.983696 
L 117.375832 31891.983696 
z
" clip-path="url(#p9fcd285dd4)" style="fill: #87ceeb; stroke: #000000; stroke-linejoin: miter"/>
   </g>
   <g id="patch_11">
    <path d="M 123.367308 31891.983696 
L 129.358783 31891.983696 
L 129.358783 231.516307 
L 123.367308 231.516307 
z
" clip-path="url(#p9fcd285dd4)" style="fill: #87ceeb; stroke: #000000; stroke-linejoin: miter"/>
   </g>
   <g id="patch_12">
    <path d="M 129.358783 31891.983696 
L 135.350259 31891.983696 
L 135.350259 31891.983696 
L 129.358783 31891.983696 
z
" clip-path="url(#p9fcd285dd4)" style="fill: #87ceeb; stroke: #000000; stroke-linejoin: miter"/>
   </g>
   <g id="patch_13">
    <path d="M 135.350259 31891.983696 
L 141.341734 31891.983696 
L 141.341734 204.760108 
L 135.350259 204.760108 
z
" clip-path="url(#p9fcd285dd4)" style="fill: #87ceeb; stroke: #000000; stroke-linejoin: miter"/>
   </g>
   <g id="patch_14">
    <path d="M 141.341734 31891.983696 
L 147.33321 31891.983696 
L 147.33321 216.410425 
L 141.341734 216.410425 
z
" clip-path="url(#p9fcd285dd4)" style="fill: #87ceeb; stroke: #000000; stroke-linejoin: miter"/>
   </g>
   <g id="patch_15">
    <path d="M 147.33321 31891.983696 
L 153.324686 31891.983696 
L 153.324686 231.516307 
L 147.33321 231.516307 
z
" clip-path="url(#p9fcd285dd4)" style="fill: #87ceeb; stroke: #000000; stroke-linejoin: miter"/>
   </g>
   <g id="patch_16">
    <path d="M 153.324686 31891.983696 
L 159.316161 31891.983696 
L 159.316161 31891.983696 
L 153.324686 31891.983696 
z
" clip-path="url(#p9fcd285dd4)" style="fill: #87ceeb; stroke: #000000; stroke-linejoin: miter"/>
   </g>
   <g id="patch_17">
    <path d="M 159.316161 31891.983696 
L 165.307637 31891.983696 
L 165.307637 31891.983696 
L 159.316161 31891.983696 
z
" clip-path="url(#p9fcd285dd4)" style="fill: #87ceeb; stroke: #000000; stroke-linejoin: miter"/>
   </g>
   <g id="patch_18">
    <path d="M 165.307637 31891.983696 
L 171.299112 31891.983696 
L 171.299112 216.410425 
L 165.307637 216.410425 
z
" clip-path="url(#p9fcd285dd4)" style="fill: #87ceeb; stroke: #000000; stroke-linejoin: miter"/>
   </g>
   <g id="patch_19">
    <path d="M 171.299112 31891.983696 
L 177.290588 31891.983696 
L 177.290588 231.516307 
L 171.299112 231.516307 
z
" clip-path="url(#p9fcd285dd4)" style="fill: #87ceeb; stroke: #000000; stroke-linejoin: miter"/>
   </g>
   <g id="patch_20">
    <path d="M 177.290588 31891.983696 
L 183.282064 31891.983696 
L 183.282064 221.985556 
L 177.290588 221.985556 
z
" clip-path="url(#p9fcd285dd4)" style="fill: #87ceeb; stroke: #000000; stroke-linejoin: miter"/>
   </g>
   <g id="patch_21">
    <path d="M 183.282064 31891.983696 
L 189.273539 31891.983696 
L 189.273539 31891.983696 
L 183.282064 31891.983696 
z
" clip-path="url(#p9fcd285dd4)" style="fill: #87ceeb; stroke: #000000; stroke-linejoin: miter"/>
   </g>
   <g id="patch_22">
    <path d="M 189.273539 31891.983696 
L 195.265015 31891.983696 
L 195.265015 31891.983696 
L 189.273539 31891.983696 
z
" clip-path="url(#p9fcd285dd4)" style="fill: #87ceeb; stroke: #000000; stroke-linejoin: miter"/>
   </g>
   <g id="patch_23">
    <path d="M 195.265015 31891.983696 
L 201.25649 31891.983696 
L 201.25649 212.454806 
L 195.265015 212.454806 
z
" clip-path="url(#p9fcd285dd4)" style="fill: #87ceeb; stroke: #000000; stroke-linejoin: miter"/>
   </g>
   <g id="patch_24">
    <path d="M 201.25649 31891.983696 
L 207.247966 31891.983696 
L 207.247966 231.516307 
L 201.25649 231.516307 
z
" clip-path="url(#p9fcd285dd4)" style="fill: #87ceeb; stroke: #000000; stroke-linejoin: miter"/>
   </g>
   <g id="patch_25">
    <path d="M 207.247966 31891.983696 
L 213.239442 31891.983696 
L 213.239442 216.410425 
L 207.247966 216.410425 
z
" clip-path="url(#p9fcd285dd4)" style="fill: #87ceeb; stroke: #000000; stroke-linejoin: miter"/>
   </g>
   <g id="patch_26">
    <path d="M 213.239442 31891.983696 
L 219.230917 31891.983696 
L 219.230917 231.516307 
L 213.239442 231.516307 
z
" clip-path="url(#p9fcd285dd4)" style="fill: #87ceeb; stroke: #000000; stroke-linejoin: miter"/>
   </g>
   <g id="patch_27">
    <path d="M 219.230917 31891.983696 
L 225.222393 31891.983696 
L 225.222393 31891.983696 
L 219.230917 31891.983696 
z
" clip-path="url(#p9fcd285dd4)" style="fill: #87ceeb; stroke: #000000; stroke-linejoin: miter"/>
   </g>
   <g id="patch_28">
    <path d="M 225.222393 31891.983696 
L 231.213868 31891.983696 
L 231.213868 31891.983696 
L 225.222393 31891.983696 
z
" clip-path="url(#p9fcd285dd4)" style="fill: #87ceeb; stroke: #000000; stroke-linejoin: miter"/>
   </g>
   <g id="patch_29">
    <path d="M 231.213868 31891.983696 
L 237.205344 31891.983696 
L 237.205344 31891.983696 
L 231.213868 31891.983696 
z
" clip-path="url(#p9fcd285dd4)" style="fill: #87ceeb; stroke: #000000; stroke-linejoin: miter"/>
   </g>
   <g id="patch_30">
    <path d="M 237.205344 31891.983696 
L 243.19682 31891.983696 
L 243.19682 31891.983696 
L 237.205344 31891.983696 
z
" clip-path="url(#p9fcd285dd4)" style="fill: #87ceeb; stroke: #000000; stroke-linejoin: miter"/>
   </g>
   <g id="patch_31">
    <path d="M 243.19682 31891.983696 
L 249.188295 31891.983696 
L 249.188295 31891.983696 
L 243.19682 31891.983696 
z
" clip-path="url(#p9fcd285dd4)" style="fill: #87ceeb; stroke: #000000; stroke-linejoin: miter"/>
   </g>
   <g id="patch_32">
    <path d="M 249.188295 31891.983696 
L 255.179771 31891.983696 
L 255.179771 31891.983696 
L 249.188295 31891.983696 
z
" clip-path="url(#p9fcd285dd4)" style="fill: #87ceeb; stroke: #000000; stroke-linejoin: miter"/>
   </g>
   <g id="patch_33">
    <path d="M 255.179771 31891.983696 
L 261.171246 31891.983696 
L 261.171246 221.985556 
L 255.179771 221.985556 
z
" clip-path="url(#p9fcd285dd4)" style="fill: #87ceeb; stroke: #000000; stroke-linejoin: miter"/>
   </g>
   <g id="patch_34">
    <path d="M 261.171246 31891.983696 
L 267.162722 31891.983696 
L 267.162722 31891.983696 
L 261.171246 31891.983696 
z
" clip-path="url(#p9fcd285dd4)" style="fill: #87ceeb; stroke: #000000; stroke-linejoin: miter"/>
   </g>
   <g id="patch_35">
    <path d="M 267.162722 31891.983696 
L 273.154198 31891.983696 
L 273.154198 31891.983696 
L 267.162722 31891.983696 
z
" clip-path="url(#p9fcd285dd4)" style="fill: #87ceeb; stroke: #000000; stroke-linejoin: miter"/>
   </g>
   <g id="patch_36">
    <path d="M 273.154198 31891.983696 
L 279.145673 31891.983696 
L 279.145673 31891.983696 
L 273.154198 31891.983696 
z
" clip-path="url(#p9fcd285dd4)" style="fill: #87ceeb; stroke: #000000; stroke-linejoin: miter"/>
   </g>
   <g id="patch_37">
    <path d="M 279.145673 31891.983696 
L 285.137149 31891.983696 
L 285.137149 31891.983696 
L 279.145673 31891.983696 
z
" clip-path="url(#p9fcd285dd4)" style="fill: #87ceeb; stroke: #000000; stroke-linejoin: miter"/>
   </g>
   <g id="patch_38">
    <path d="M 285.137149 31891.983696 
L 291.128624 31891.983696 
L 291.128624 231.516307 
L 285.137149 231.516307 
z
" clip-path="url(#p9fcd285dd4)" style="fill: #87ceeb; stroke: #000000; stroke-linejoin: miter"/>
   </g>
   <g id="patch_39">
    <path d="M 291.128624 31891.983696 
L 297.1201 31891.983696 
L 297.1201 31891.983696 
L 291.128624 31891.983696 
z
" clip-path="url(#p9fcd285dd4)" style="fill: #87ceeb; stroke: #000000; stroke-linejoin: miter"/>
   </g>
   <g id="patch_40">
    <path d="M 297.1201 31891.983696 
L 303.111576 31891.983696 
L 303.111576 231.516307 
L 297.1201 231.516307 
z
" clip-path="url(#p9fcd285dd4)" style="fill: #87ceeb; stroke: #000000; stroke-linejoin: miter"/>
   </g>
   <g id="patch_41">
    <path d="M 303.111576 31891.983696 
L 309.103051 31891.983696 
L 309.103051 31891.983696 
L 303.111576 31891.983696 
z
" clip-path="url(#p9fcd285dd4)" style="fill: #87ceeb; stroke: #000000; stroke-linejoin: miter"/>
   </g>
   <g id="patch_42">
    <path d="M 309.103051 31891.983696 
L 315.094527 31891.983696 
L 315.094527 31891.983696 
L 309.103051 31891.983696 
z
" clip-path="url(#p9fcd285dd4)" style="fill: #87ceeb; stroke: #000000; stroke-linejoin: miter"/>
   </g>
   <g id="patch_43">
    <path d="M 315.094527 31891.983696 
L 321.086002 31891.983696 
L 321.086002 216.410425 
L 315.094527 216.410425 
z
" clip-path="url(#p9fcd285dd4)" style="fill: #87ceeb; stroke: #000000; stroke-linejoin: miter"/>
   </g>
   <g id="patch_44">
    <path d="M 321.086002 31891.983696 
L 327.077478 31891.983696 
L 327.077478 31891.983696 
L 321.086002 31891.983696 
z
" clip-path="url(#p9fcd285dd4)" style="fill: #87ceeb; stroke: #000000; stroke-linejoin: miter"/>
   </g>
   <g id="patch_45">
    <path d="M 327.077478 31891.983696 
L 333.068953 31891.983696 
L 333.068953 31891.983696 
L 327.077478 31891.983696 
z
" clip-path="url(#p9fcd285dd4)" style="fill: #87ceeb; stroke: #000000; stroke-linejoin: miter"/>
   </g>
   <g id="patch_46">
    <path d="M 333.068953 31891.983696 
L 339.060429 31891.983696 
L 339.060429 31891.983696 
L 333.068953 31891.983696 
z
" clip-path="url(#p9fcd285dd4)" style="fill: #87ceeb; stroke: #000000; stroke-linejoin: miter"/>
   </g>
   <g id="patch_47">
    <path d="M 339.060429 31891.983696 
L 345.051905 31891.983696 
L 345.051905 31891.983696 
L 339.060429 31891.983696 
z
" clip-path="url(#p9fcd285dd4)" style="fill: #87ceeb; stroke: #000000; stroke-linejoin: miter"/>
   </g>
   <g id="patch_48">
    <path d="M 345.051905 31891.983696 
L 351.04338 31891.983696 
L 351.04338 31891.983696 
L 345.051905 31891.983696 
z
" clip-path="url(#p9fcd285dd4)" style="fill: #87ceeb; stroke: #000000; stroke-linejoin: miter"/>
   </g>
   <g id="patch_49">
    <path d="M 351.04338 31891.983696 
L 357.034856 31891.983696 
L 357.034856 31891.983696 
L 351.04338 31891.983696 
z
" clip-path="url(#p9fcd285dd4)" style="fill: #87ceeb; stroke: #000000; stroke-linejoin: miter"/>
   </g>
   <g id="patch_50">
    <path d="M 357.034856 31891.983696 
L 363.026331 31891.983696 
L 363.026331 31891.983696 
L 357.034856 31891.983696 
z
" clip-path="url(#p9fcd285dd4)" style="fill: #87ceeb; stroke: #000000; stroke-linejoin: miter"/>
   </g>
   <g id="patch_51">
    <path d="M 363.026331 31891.983696 
L 369.017807 31891.983696 
L 369.017807 31891.983696 
L 363.026331 31891.983696 
z
" clip-path="url(#p9fcd285dd4)" style="fill: #87ceeb; stroke: #000000; stroke-linejoin: miter"/>
   </g>
   <g id="patch_52">
    <path d="M 369.017807 31891.983696 
L 375.009283 31891.983696 
L 375.009283 31891.983696 
L 369.017807 31891.983696 
z
" clip-path="url(#p9fcd285dd4)" style="fill: #87ceeb; stroke: #000000; stroke-linejoin: miter"/>
   </g>
   <g id="patch_53">
    <path d="M 375.009283 31891.983696 
L 381.000758 31891.983696 
L 381.000758 31891.983696 
L 375.009283 31891.983696 
z
" clip-path="url(#p9fcd285dd4)" style="fill: #87ceeb; stroke: #000000; stroke-linejoin: miter"/>
   </g>
   <g id="patch_54">
    <path d="M 381.000758 31891.983696 
L 386.992234 31891.983696 
L 386.992234 31891.983696 
L 381.000758 31891.983696 
z
" clip-path="url(#p9fcd285dd4)" style="fill: #87ceeb; stroke: #000000; stroke-linejoin: miter"/>
   </g>
   <g id="patch_55">
    <path d="M 386.992234 31891.983696 
L 392.983709 31891.983696 
L 392.983709 31891.983696 
L 386.992234 31891.983696 
z
" clip-path="url(#p9fcd285dd4)" style="fill: #87ceeb; stroke: #000000; stroke-linejoin: miter"/>
   </g>
   <g id="patch_56">
    <path d="M 392.983709 31891.983696 
L 398.975185 31891.983696 
L 398.975185 31891.983696 
L 392.983709 31891.983696 
z
" clip-path="url(#p9fcd285dd4)" style="fill: #87ceeb; stroke: #000000; stroke-linejoin: miter"/>
   </g>
   <g id="patch_57">
    <path d="M 398.975185 31891.983696 
L 404.966661 31891.983696 
L 404.966661 231.516307 
L 398.975185 231.516307 
z
" clip-path="url(#p9fcd285dd4)" style="fill: #87ceeb; stroke: #000000; stroke-linejoin: miter"/>
   </g>
   <g id="patch_58">
    <path d="M 404.966661 31891.983696 
L 410.958136 31891.983696 
L 410.958136 231.516307 
L 404.966661 231.516307 
z
" clip-path="url(#p9fcd285dd4)" style="fill: #87ceeb; stroke: #000000; stroke-linejoin: miter"/>
   </g>
   <g id="patch_59">
    <path d="M 410.958136 31891.983696 
L 416.949612 31891.983696 
L 416.949612 31891.983696 
L 410.958136 31891.983696 
z
" clip-path="url(#p9fcd285dd4)" style="fill: #87ceeb; stroke: #000000; stroke-linejoin: miter"/>
   </g>
   <g id="patch_60">
    <path d="M 416.949612 31891.983696 
L 422.941087 31891.983696 
L 422.941087 31891.983696 
L 416.949612 31891.983696 
z
" clip-path="url(#p9fcd285dd4)" style="fill: #87ceeb; stroke: #000000; stroke-linejoin: miter"/>
   </g>
   <g id="patch_61">
    <path d="M 422.941087 31891.983696 
L 428.932563 31891.983696 
L 428.932563 31891.983696 
L 422.941087 31891.983696 
z
" clip-path="url(#p9fcd285dd4)" style="fill: #87ceeb; stroke: #000000; stroke-linejoin: miter"/>
   </g>
   <g id="patch_62">
    <path d="M 428.932563 31891.983696 
L 434.924039 31891.983696 
L 434.924039 31891.983696 
L 428.932563 31891.983696 
z
" clip-path="url(#p9fcd285dd4)" style="fill: #87ceeb; stroke: #000000; stroke-linejoin: miter"/>
   </g>
   <g id="patch_63">
    <path d="M 434.924039 31891.983696 
L 440.915514 31891.983696 
L 440.915514 31891.983696 
L 434.924039 31891.983696 
z
" clip-path="url(#p9fcd285dd4)" style="fill: #87ceeb; stroke: #000000; stroke-linejoin: miter"/>
   </g>
   <g id="patch_64">
    <path d="M 440.915514 31891.983696 
L 446.90699 31891.983696 
L 446.90699 31891.983696 
L 440.915514 31891.983696 
z
" clip-path="url(#p9fcd285dd4)" style="fill: #87ceeb; stroke: #000000; stroke-linejoin: miter"/>
   </g>
   <g id="patch_65">
    <path d="M 446.90699 31891.983696 
L 452.898465 31891.983696 
L 452.898465 31891.983696 
L 446.90699 31891.983696 
z
" clip-path="url(#p9fcd285dd4)" style="fill: #87ceeb; stroke: #000000; stroke-linejoin: miter"/>
   </g>
   <g id="patch_66">
    <path d="M 452.898465 31891.983696 
L 458.889941 31891.983696 
L 458.889941 31891.983696 
L 452.898465 31891.983696 
z
" clip-path="url(#p9fcd285dd4)" style="fill: #87ceeb; stroke: #000000; stroke-linejoin: miter"/>
   </g>
   <g id="patch_67">
    <path d="M 458.889941 31891.983696 
L 464.881417 31891.983696 
L 464.881417 31891.983696 
L 458.889941 31891.983696 
z
" clip-path="url(#p9fcd285dd4)" style="fill: #87ceeb; stroke: #000000; stroke-linejoin: miter"/>
   </g>
   <g id="patch_68">
    <path d="M 464.881417 31891.983696 
L 470.872892 31891.983696 
L 470.872892 31891.983696 
L 464.881417 31891.983696 
z
" clip-path="url(#p9fcd285dd4)" style="fill: #87ceeb; stroke: #000000; stroke-linejoin: miter"/>
   </g>
   <g id="patch_69">
    <path d="M 470.872892 31891.983696 
L 476.864368 31891.983696 
L 476.864368 31891.983696 
L 470.872892 31891.983696 
z
" clip-path="url(#p9fcd285dd4)" style="fill: #87ceeb; stroke: #000000; stroke-linejoin: miter"/>
   </g>
   <g id="patch_70">
    <path d="M 476.864368 31891.983696 
L 482.855843 31891.983696 
L 482.855843 31891.983696 
L 476.864368 31891.983696 
z
" clip-path="url(#p9fcd285dd4)" style="fill: #87ceeb; stroke: #000000; stroke-linejoin: miter"/>
   </g>
   <g id="patch_71">
    <path d="M 482.855843 31891.983696 
L 488.847319 31891.983696 
L 488.847319 31891.983696 
L 482.855843 31891.983696 
z
" clip-path="url(#p9fcd285dd4)" style="fill: #87ceeb; stroke: #000000; stroke-linejoin: miter"/>
   </g>
   <g id="patch_72">
    <path d="M 488.847319 31891.983696 
L 494.838794 31891.983696 
L 494.838794 31891.983696 
L 488.847319 31891.983696 
z
" clip-path="url(#p9fcd285dd4)" style="fill: #87ceeb; stroke: #000000; stroke-linejoin: miter"/>
   </g>
   <g id="patch_73">
    <path d="M 494.838794 31891.983696 
L 500.83027 31891.983696 
L 500.83027 31891.983696 
L 494.838794 31891.983696 
z
" clip-path="url(#p9fcd285dd4)" style="fill: #87ceeb; stroke: #000000; stroke-linejoin: miter"/>
   </g>
   <g id="patch_74">
    <path d="M 500.83027 31891.983696 
L 506.821746 31891.983696 
L 506.821746 31891.983696 
L 500.83027 31891.983696 
z
" clip-path="url(#p9fcd285dd4)" style="fill: #87ceeb; stroke: #000000; stroke-linejoin: miter"/>
   </g>
   <g id="patch_75">
    <path d="M 506.821746 31891.983696 
L 512.813221 31891.983696 
L 512.813221 31891.983696 
L 506.821746 31891.983696 
z
" clip-path="url(#p9fcd285dd4)" style="fill: #87ceeb; stroke: #000000; stroke-linejoin: miter"/>
   </g>
   <g id="patch_76">
    <path d="M 512.813221 31891.983696 
L 518.804697 31891.983696 
L 518.804697 31891.983696 
L 512.813221 31891.983696 
z
" clip-path="url(#p9fcd285dd4)" style="fill: #87ceeb; stroke: #000000; stroke-linejoin: miter"/>
   </g>
   <g id="patch_77">
    <path d="M 518.804697 31891.983696 
L 524.796172 31891.983696 
L 524.796172 31891.983696 
L 518.804697 31891.983696 
z
" clip-path="url(#p9fcd285dd4)" style="fill: #87ceeb; stroke: #000000; stroke-linejoin: miter"/>
   </g>
   <g id="patch_78">
    <path d="M 524.796172 31891.983696 
L 530.787648 31891.983696 
L 530.787648 31891.983696 
L 524.796172 31891.983696 
z
" clip-path="url(#p9fcd285dd4)" style="fill: #87ceeb; stroke: #000000; stroke-linejoin: miter"/>
   </g>
   <g id="patch_79">
    <path d="M 530.787648 31891.983696 
L 536.779124 31891.983696 
L 536.779124 31891.983696 
L 530.787648 31891.983696 
z
" clip-path="url(#p9fcd285dd4)" style="fill: #87ceeb; stroke: #000000; stroke-linejoin: miter"/>
   </g>
   <g id="patch_80">
    <path d="M 536.779124 31891.983696 
L 542.770599 31891.983696 
L 542.770599 31891.983696 
L 536.779124 31891.983696 
z
" clip-path="url(#p9fcd285dd4)" style="fill: #87ceeb; stroke: #000000; stroke-linejoin: miter"/>
   </g>
   <g id="patch_81">
    <path d="M 542.770599 31891.983696 
L 548.762075 31891.983696 
L 548.762075 31891.983696 
L 542.770599 31891.983696 
z
" clip-path="url(#p9fcd285dd4)" style="fill: #87ceeb; stroke: #000000; stroke-linejoin: miter"/>
   </g>
   <g id="patch_82">
    <path d="M 548.762075 31891.983696 
L 554.75355 31891.983696 
L 554.75355 31891.983696 
L 548.762075 31891.983696 
z
" clip-path="url(#p9fcd285dd4)" style="fill: #87ceeb; stroke: #000000; stroke-linejoin: miter"/>
   </g>
   <g id="patch_83">
    <path d="M 554.75355 31891.983696 
L 560.745026 31891.983696 
L 560.745026 231.516307 
L 554.75355 231.516307 
z
" clip-path="url(#p9fcd285dd4)" style="fill: #87ceeb; stroke: #000000; stroke-linejoin: miter"/>
   </g>
   <g id="patch_84">
    <path d="M 560.745026 31891.983696 
L 566.736502 31891.983696 
L 566.736502 31891.983696 
L 560.745026 31891.983696 
z
" clip-path="url(#p9fcd285dd4)" style="fill: #87ceeb; stroke: #000000; stroke-linejoin: miter"/>
   </g>
   <g id="patch_85">
    <path d="M 566.736502 31891.983696 
L 572.727977 31891.983696 
L 572.727977 31891.983696 
L 566.736502 31891.983696 
z
" clip-path="url(#p9fcd285dd4)" style="fill: #87ceeb; stroke: #000000; stroke-linejoin: miter"/>
   </g>
   <g id="patch_86">
    <path d="M 572.727977 31891.983696 
L 578.719453 31891.983696 
L 578.719453 31891.983696 
L 572.727977 31891.983696 
z
" clip-path="url(#p9fcd285dd4)" style="fill: #87ceeb; stroke: #000000; stroke-linejoin: miter"/>
   </g>
   <g id="patch_87">
    <path d="M 578.719453 31891.983696 
L 584.710928 31891.983696 
L 584.710928 31891.983696 
L 578.719453 31891.983696 
z
" clip-path="url(#p9fcd285dd4)" style="fill: #87ceeb; stroke: #000000; stroke-linejoin: miter"/>
   </g>
   <g id="patch_88">
    <path d="M 584.710928 31891.983696 
L 590.702404 31891.983696 
L 590.702404 31891.983696 
L 584.710928 31891.983696 
z
" clip-path="url(#p9fcd285dd4)" style="fill: #87ceeb; stroke: #000000; stroke-linejoin: miter"/>
   </g>
   <g id="patch_89">
    <path d="M 590.702404 31891.983696 
L 596.69388 31891.983696 
L 596.69388 31891.983696 
L 590.702404 31891.983696 
z
" clip-path="url(#p9fcd285dd4)" style="fill: #87ceeb; stroke: #000000; stroke-linejoin: miter"/>
   </g>
   <g id="patch_90">
    <path d="M 596.69388 31891.983696 
L 602.685355 31891.983696 
L 602.685355 31891.983696 
L 596.69388 31891.983696 
z
" clip-path="url(#p9fcd285dd4)" style="fill: #87ceeb; stroke: #000000; stroke-linejoin: miter"/>
   </g>
   <g id="patch_91">
    <path d="M 602.685355 31891.983696 
L 608.676831 31891.983696 
L 608.676831 31891.983696 
L 602.685355 31891.983696 
z
" clip-path="url(#p9fcd285dd4)" style="fill: #87ceeb; stroke: #000000; stroke-linejoin: miter"/>
   </g>
   <g id="patch_92">
    <path d="M 608.676831 31891.983696 
L 614.668306 31891.983696 
L 614.668306 31891.983696 
L 608.676831 31891.983696 
z
" clip-path="url(#p9fcd285dd4)" style="fill: #87ceeb; stroke: #000000; stroke-linejoin: miter"/>
   </g>
   <g id="patch_93">
    <path d="M 614.668306 31891.983696 
L 620.659782 31891.983696 
L 620.659782 231.516307 
L 614.668306 231.516307 
z
" clip-path="url(#p9fcd285dd4)" style="fill: #87ceeb; stroke: #000000; stroke-linejoin: miter"/>
   </g>
   <g id="patch_94">
    <path d="M 620.659782 31891.983696 
L 626.651258 31891.983696 
L 626.651258 31891.983696 
L 620.659782 31891.983696 
z
" clip-path="url(#p9fcd285dd4)" style="fill: #87ceeb; stroke: #000000; stroke-linejoin: miter"/>
   </g>
   <g id="patch_95">
    <path d="M 626.651258 31891.983696 
L 632.642733 31891.983696 
L 632.642733 31891.983696 
L 626.651258 31891.983696 
z
" clip-path="url(#p9fcd285dd4)" style="fill: #87ceeb; stroke: #000000; stroke-linejoin: miter"/>
   </g>
   <g id="patch_96">
    <path d="M 632.642733 31891.983696 
L 638.634209 31891.983696 
L 638.634209 31891.983696 
L 632.642733 31891.983696 
z
" clip-path="url(#p9fcd285dd4)" style="fill: #87ceeb; stroke: #000000; stroke-linejoin: miter"/>
   </g>
   <g id="patch_97">
    <path d="M 638.634209 31891.983696 
L 644.625684 31891.983696 
L 644.625684 31891.983696 
L 638.634209 31891.983696 
z
" clip-path="url(#p9fcd285dd4)" style="fill: #87ceeb; stroke: #000000; stroke-linejoin: miter"/>
   </g>
   <g id="patch_98">
    <path d="M 644.625684 31891.983696 
L 650.61716 31891.983696 
L 650.61716 31891.983696 
L 644.625684 31891.983696 
z
" clip-path="url(#p9fcd285dd4)" style="fill: #87ceeb; stroke: #000000; stroke-linejoin: miter"/>
   </g>
   <g id="patch_99">
    <path d="M 650.61716 31891.983696 
L 656.608635 31891.983696 
L 656.608635 31891.983696 
L 650.61716 31891.983696 
z
" clip-path="url(#p9fcd285dd4)" style="fill: #87ceeb; stroke: #000000; stroke-linejoin: miter"/>
   </g>
   <g id="patch_100">
    <path d="M 656.608635 31891.983696 
L 662.600111 31891.983696 
L 662.600111 31891.983696 
L 656.608635 31891.983696 
z
" clip-path="url(#p9fcd285dd4)" style="fill: #87ceeb; stroke: #000000; stroke-linejoin: miter"/>
   </g>
   <g id="patch_101">
    <path d="M 662.600111 31891.983696 
L 668.591587 31891.983696 
L 668.591587 31891.983696 
L 662.600111 31891.983696 
z
" clip-path="url(#p9fcd285dd4)" style="fill: #87ceeb; stroke: #000000; stroke-linejoin: miter"/>
   </g>
   <g id="patch_102">
    <path d="M 668.591587 31891.983696 
L 674.583062 31891.983696 
L 674.583062 204.760108 
L 668.591587 204.760108 
z
" clip-path="url(#p9fcd285dd4)" style="fill: #87ceeb; stroke: #000000; stroke-linejoin: miter"/>
   </g>
   <g id="matplotlib.axis_1">
    <g id="xtick_1">
     <g id="line2d_1">
      <defs>
       <path id="m09cc617467" d="M 0 0 
L 0 3.5 
" style="stroke: #000000; stroke-width: 0.8"/>
      </defs>
      <g>
       <use xlink:href="#m09cc617467" x="75.435503" y="241.478125" style="stroke: #000000; stroke-width: 0.8"/>
      </g>
     </g>
     <g id="text_1">
      <!-- 0 -->
      <g transform="translate(72.254253 256.076563) scale(0.1 -0.1)">
       <defs>
        <path id="DejaVuSans-30" d="M 2034 4250 
Q 1547 4250 1301 3770 
Q 1056 3291 1056 2328 
Q 1056 1369 1301 889 
Q 1547 409 2034 409 
Q 2525 409 2770 889 
Q 3016 1369 3016 2328 
Q 3016 3291 2770 3770 
Q 2525 4250 2034 4250 
z
M 2034 4750 
Q 2819 4750 3233 4129 
Q 3647 3509 3647 2328 
Q 3647 1150 3233 529 
Q 2819 -91 2034 -91 
Q 1250 -91 836 529 
Q 422 1150 422 2328 
Q 422 3509 836 4129 
Q 1250 4750 2034 4750 
z
" transform="scale(0.015625)"/>
       </defs>
       <use xlink:href="#DejaVuSans-30"/>
      </g>
     </g>
    </g>
    <g id="xtick_2">
     <g id="line2d_2">
      <g>
       <use xlink:href="#m09cc617467" x="195.265015" y="241.478125" style="stroke: #000000; stroke-width: 0.8"/>
      </g>
     </g>
     <g id="text_2">
      <!-- 20000 -->
      <g transform="translate(179.358765 256.076563) scale(0.1 -0.1)">
       <defs>
        <path id="DejaVuSans-32" d="M 1228 531 
L 3431 531 
L 3431 0 
L 469 0 
L 469 531 
Q 828 903 1448 1529 
Q 2069 2156 2228 2338 
Q 2531 2678 2651 2914 
Q 2772 3150 2772 3378 
Q 2772 3750 2511 3984 
Q 2250 4219 1831 4219 
Q 1534 4219 1204 4116 
Q 875 4013 500 3803 
L 500 4441 
Q 881 4594 1212 4672 
Q 1544 4750 1819 4750 
Q 2544 4750 2975 4387 
Q 3406 4025 3406 3419 
Q 3406 3131 3298 2873 
Q 3191 2616 2906 2266 
Q 2828 2175 2409 1742 
Q 1991 1309 1228 531 
z
" transform="scale(0.015625)"/>
       </defs>
       <use xlink:href="#DejaVuSans-32"/>
       <use xlink:href="#DejaVuSans-30" transform="translate(63.623047 0)"/>
       <use xlink:href="#DejaVuSans-30" transform="translate(127.246094 0)"/>
       <use xlink:href="#DejaVuSans-30" transform="translate(190.869141 0)"/>
       <use xlink:href="#DejaVuSans-30" transform="translate(254.492188 0)"/>
      </g>
     </g>
    </g>
    <g id="xtick_3">
     <g id="line2d_3">
      <g>
       <use xlink:href="#m09cc617467" x="315.094527" y="241.478125" style="stroke: #000000; stroke-width: 0.8"/>
      </g>
     </g>
     <g id="text_3">
      <!-- 40000 -->
      <g transform="translate(299.188277 256.076563) scale(0.1 -0.1)">
       <defs>
        <path id="DejaVuSans-34" d="M 2419 4116 
L 825 1625 
L 2419 1625 
L 2419 4116 
z
M 2253 4666 
L 3047 4666 
L 3047 1625 
L 3713 1625 
L 3713 1100 
L 3047 1100 
L 3047 0 
L 2419 0 
L 2419 1100 
L 313 1100 
L 313 1709 
L 2253 4666 
z
" transform="scale(0.015625)"/>
       </defs>
       <use xlink:href="#DejaVuSans-34"/>
       <use xlink:href="#DejaVuSans-30" transform="translate(63.623047 0)"/>
       <use xlink:href="#DejaVuSans-30" transform="translate(127.246094 0)"/>
       <use xlink:href="#DejaVuSans-30" transform="translate(190.869141 0)"/>
       <use xlink:href="#DejaVuSans-30" transform="translate(254.492188 0)"/>
      </g>
     </g>
    </g>
    <g id="xtick_4">
     <g id="line2d_4">
      <g>
       <use xlink:href="#m09cc617467" x="434.924039" y="241.478125" style="stroke: #000000; stroke-width: 0.8"/>
      </g>
     </g>
     <g id="text_4">
      <!-- 60000 -->
      <g transform="translate(419.017789 256.076563) scale(0.1 -0.1)">
       <defs>
        <path id="DejaVuSans-36" d="M 2113 2584 
Q 1688 2584 1439 2293 
Q 1191 2003 1191 1497 
Q 1191 994 1439 701 
Q 1688 409 2113 409 
Q 2538 409 2786 701 
Q 3034 994 3034 1497 
Q 3034 2003 2786 2293 
Q 2538 2584 2113 2584 
z
M 3366 4563 
L 3366 3988 
Q 3128 4100 2886 4159 
Q 2644 4219 2406 4219 
Q 1781 4219 1451 3797 
Q 1122 3375 1075 2522 
Q 1259 2794 1537 2939 
Q 1816 3084 2150 3084 
Q 2853 3084 3261 2657 
Q 3669 2231 3669 1497 
Q 3669 778 3244 343 
Q 2819 -91 2113 -91 
Q 1303 -91 875 529 
Q 447 1150 447 2328 
Q 447 3434 972 4092 
Q 1497 4750 2381 4750 
Q 2619 4750 2861 4703 
Q 3103 4656 3366 4563 
z
" transform="scale(0.015625)"/>
       </defs>
       <use xlink:href="#DejaVuSans-36"/>
       <use xlink:href="#DejaVuSans-30" transform="translate(63.623047 0)"/>
       <use xlink:href="#DejaVuSans-30" transform="translate(127.246094 0)"/>
       <use xlink:href="#DejaVuSans-30" transform="translate(190.869141 0)"/>
       <use xlink:href="#DejaVuSans-30" transform="translate(254.492188 0)"/>
      </g>
     </g>
    </g>
    <g id="xtick_5">
     <g id="line2d_5">
      <g>
       <use xlink:href="#m09cc617467" x="554.75355" y="241.478125" style="stroke: #000000; stroke-width: 0.8"/>
      </g>
     </g>
     <g id="text_5">
      <!-- 80000 -->
      <g transform="translate(538.8473 256.076563) scale(0.1 -0.1)">
       <defs>
        <path id="DejaVuSans-38" d="M 2034 2216 
Q 1584 2216 1326 1975 
Q 1069 1734 1069 1313 
Q 1069 891 1326 650 
Q 1584 409 2034 409 
Q 2484 409 2743 651 
Q 3003 894 3003 1313 
Q 3003 1734 2745 1975 
Q 2488 2216 2034 2216 
z
M 1403 2484 
Q 997 2584 770 2862 
Q 544 3141 544 3541 
Q 544 4100 942 4425 
Q 1341 4750 2034 4750 
Q 2731 4750 3128 4425 
Q 3525 4100 3525 3541 
Q 3525 3141 3298 2862 
Q 3072 2584 2669 2484 
Q 3125 2378 3379 2068 
Q 3634 1759 3634 1313 
Q 3634 634 3220 271 
Q 2806 -91 2034 -91 
Q 1263 -91 848 271 
Q 434 634 434 1313 
Q 434 1759 690 2068 
Q 947 2378 1403 2484 
z
M 1172 3481 
Q 1172 3119 1398 2916 
Q 1625 2713 2034 2713 
Q 2441 2713 2670 2916 
Q 2900 3119 2900 3481 
Q 2900 3844 2670 4047 
Q 2441 4250 2034 4250 
Q 1625 4250 1398 4047 
Q 1172 3844 1172 3481 
z
" transform="scale(0.015625)"/>
       </defs>
       <use xlink:href="#DejaVuSans-38"/>
       <use xlink:href="#DejaVuSans-30" transform="translate(63.623047 0)"/>
       <use xlink:href="#DejaVuSans-30" transform="translate(127.246094 0)"/>
       <use xlink:href="#DejaVuSans-30" transform="translate(190.869141 0)"/>
       <use xlink:href="#DejaVuSans-30" transform="translate(254.492188 0)"/>
      </g>
     </g>
    </g>
    <g id="xtick_6">
     <g id="line2d_6">
      <g>
       <use xlink:href="#m09cc617467" x="674.583062" y="241.478125" style="stroke: #000000; stroke-width: 0.8"/>
      </g>
     </g>
     <g id="text_6">
      <!-- 100000 -->
      <g transform="translate(655.495562 256.076563) scale(0.1 -0.1)">
       <defs>
        <path id="DejaVuSans-31" d="M 794 531 
L 1825 531 
L 1825 4091 
L 703 3866 
L 703 4441 
L 1819 4666 
L 2450 4666 
L 2450 531 
L 3481 531 
L 3481 0 
L 794 0 
L 794 531 
z
" transform="scale(0.015625)"/>
       </defs>
       <use xlink:href="#DejaVuSans-31"/>
       <use xlink:href="#DejaVuSans-30" transform="translate(63.623047 0)"/>
       <use xlink:href="#DejaVuSans-30" transform="translate(127.246094 0)"/>
       <use xlink:href="#DejaVuSans-30" transform="translate(190.869141 0)"/>
       <use xlink:href="#DejaVuSans-30" transform="translate(254.492188 0)"/>
       <use xlink:href="#DejaVuSans-30" transform="translate(318.115234 0)"/>
      </g>
     </g>
    </g>
    <g id="text_7">
     <!-- Drivers per Power Unit -->
     <g transform="translate(318.653814 269.754687) scale(0.1 -0.1)">
      <defs>
       <path id="DejaVuSans-44" d="M 1259 4147 
L 1259 519 
L 2022 519 
Q 2988 519 3436 956 
Q 3884 1394 3884 2338 
Q 3884 3275 3436 3711 
Q 2988 4147 2022 4147 
L 1259 4147 
z
M 628 4666 
L 1925 4666 
Q 3281 4666 3915 4102 
Q 4550 3538 4550 2338 
Q 4550 1131 3912 565 
Q 3275 0 1925 0 
L 628 0 
L 628 4666 
z
" transform="scale(0.015625)"/>
       <path id="DejaVuSans-72" d="M 2631 2963 
Q 2534 3019 2420 3045 
Q 2306 3072 2169 3072 
Q 1681 3072 1420 2755 
Q 1159 2438 1159 1844 
L 1159 0 
L 581 0 
L 581 3500 
L 1159 3500 
L 1159 2956 
Q 1341 3275 1631 3429 
Q 1922 3584 2338 3584 
Q 2397 3584 2469 3576 
Q 2541 3569 2628 3553 
L 2631 2963 
z
" transform="scale(0.015625)"/>
       <path id="DejaVuSans-69" d="M 603 3500 
L 1178 3500 
L 1178 0 
L 603 0 
L 603 3500 
z
M 603 4863 
L 1178 4863 
L 1178 4134 
L 603 4134 
L 603 4863 
z
" transform="scale(0.015625)"/>
       <path id="DejaVuSans-76" d="M 191 3500 
L 800 3500 
L 1894 563 
L 2988 3500 
L 3597 3500 
L 2284 0 
L 1503 0 
L 191 3500 
z
" transform="scale(0.015625)"/>
       <path id="DejaVuSans-65" d="M 3597 1894 
L 3597 1613 
L 953 1613 
Q 991 1019 1311 708 
Q 1631 397 2203 397 
Q 2534 397 2845 478 
Q 3156 559 3463 722 
L 3463 178 
Q 3153 47 2828 -22 
Q 2503 -91 2169 -91 
Q 1331 -91 842 396 
Q 353 884 353 1716 
Q 353 2575 817 3079 
Q 1281 3584 2069 3584 
Q 2775 3584 3186 3129 
Q 3597 2675 3597 1894 
z
M 3022 2063 
Q 3016 2534 2758 2815 
Q 2500 3097 2075 3097 
Q 1594 3097 1305 2825 
Q 1016 2553 972 2059 
L 3022 2063 
z
" transform="scale(0.015625)"/>
       <path id="DejaVuSans-73" d="M 2834 3397 
L 2834 2853 
Q 2591 2978 2328 3040 
Q 2066 3103 1784 3103 
Q 1356 3103 1142 2972 
Q 928 2841 928 2578 
Q 928 2378 1081 2264 
Q 1234 2150 1697 2047 
L 1894 2003 
Q 2506 1872 2764 1633 
Q 3022 1394 3022 966 
Q 3022 478 2636 193 
Q 2250 -91 1575 -91 
Q 1294 -91 989 -36 
Q 684 19 347 128 
L 347 722 
Q 666 556 975 473 
Q 1284 391 1588 391 
Q 1994 391 2212 530 
Q 2431 669 2431 922 
Q 2431 1156 2273 1281 
Q 2116 1406 1581 1522 
L 1381 1569 
Q 847 1681 609 1914 
Q 372 2147 372 2553 
Q 372 3047 722 3315 
Q 1072 3584 1716 3584 
Q 2034 3584 2315 3537 
Q 2597 3491 2834 3397 
z
" transform="scale(0.015625)"/>
       <path id="DejaVuSans-20" transform="scale(0.015625)"/>
       <path id="DejaVuSans-70" d="M 1159 525 
L 1159 -1331 
L 581 -1331 
L 581 3500 
L 1159 3500 
L 1159 2969 
Q 1341 3281 1617 3432 
Q 1894 3584 2278 3584 
Q 2916 3584 3314 3078 
Q 3713 2572 3713 1747 
Q 3713 922 3314 415 
Q 2916 -91 2278 -91 
Q 1894 -91 1617 61 
Q 1341 213 1159 525 
z
M 3116 1747 
Q 3116 2381 2855 2742 
Q 2594 3103 2138 3103 
Q 1681 3103 1420 2742 
Q 1159 2381 1159 1747 
Q 1159 1113 1420 752 
Q 1681 391 2138 391 
Q 2594 391 2855 752 
Q 3116 1113 3116 1747 
z
" transform="scale(0.015625)"/>
       <path id="DejaVuSans-50" d="M 1259 4147 
L 1259 2394 
L 2053 2394 
Q 2494 2394 2734 2622 
Q 2975 2850 2975 3272 
Q 2975 3691 2734 3919 
Q 2494 4147 2053 4147 
L 1259 4147 
z
M 628 4666 
L 2053 4666 
Q 2838 4666 3239 4311 
Q 3641 3956 3641 3272 
Q 3641 2581 3239 2228 
Q 2838 1875 2053 1875 
L 1259 1875 
L 1259 0 
L 628 0 
L 628 4666 
z
" transform="scale(0.015625)"/>
       <path id="DejaVuSans-6f" d="M 1959 3097 
Q 1497 3097 1228 2736 
Q 959 2375 959 1747 
Q 959 1119 1226 758 
Q 1494 397 1959 397 
Q 2419 397 2687 759 
Q 2956 1122 2956 1747 
Q 2956 2369 2687 2733 
Q 2419 3097 1959 3097 
z
M 1959 3584 
Q 2709 3584 3137 3096 
Q 3566 2609 3566 1747 
Q 3566 888 3137 398 
Q 2709 -91 1959 -91 
Q 1206 -91 779 398 
Q 353 888 353 1747 
Q 353 2609 779 3096 
Q 1206 3584 1959 3584 
z
" transform="scale(0.015625)"/>
       <path id="DejaVuSans-77" d="M 269 3500 
L 844 3500 
L 1563 769 
L 2278 3500 
L 2956 3500 
L 3675 769 
L 4391 3500 
L 4966 3500 
L 4050 0 
L 3372 0 
L 2619 2869 
L 1863 0 
L 1184 0 
L 269 3500 
z
" transform="scale(0.015625)"/>
       <path id="DejaVuSans-55" d="M 556 4666 
L 1191 4666 
L 1191 1831 
Q 1191 1081 1462 751 
Q 1734 422 2344 422 
Q 2950 422 3222 751 
Q 3494 1081 3494 1831 
L 3494 4666 
L 4128 4666 
L 4128 1753 
Q 4128 841 3676 375 
Q 3225 -91 2344 -91 
Q 1459 -91 1007 375 
Q 556 841 556 1753 
L 556 4666 
z
" transform="scale(0.015625)"/>
       <path id="DejaVuSans-6e" d="M 3513 2113 
L 3513 0 
L 2938 0 
L 2938 2094 
Q 2938 2591 2744 2837 
Q 2550 3084 2163 3084 
Q 1697 3084 1428 2787 
Q 1159 2491 1159 1978 
L 1159 0 
L 581 0 
L 581 3500 
L 1159 3500 
L 1159 2956 
Q 1366 3272 1645 3428 
Q 1925 3584 2291 3584 
Q 2894 3584 3203 3211 
Q 3513 2838 3513 2113 
z
" transform="scale(0.015625)"/>
       <path id="DejaVuSans-74" d="M 1172 4494 
L 1172 3500 
L 2356 3500 
L 2356 3053 
L 1172 3053 
L 1172 1153 
Q 1172 725 1289 603 
Q 1406 481 1766 481 
L 2356 481 
L 2356 0 
L 1766 0 
Q 1100 0 847 248 
Q 594 497 594 1153 
L 594 3053 
L 172 3053 
L 172 3500 
L 594 3500 
L 594 4494 
L 1172 4494 
z
" transform="scale(0.015625)"/>
      </defs>
      <use xlink:href="#DejaVuSans-44"/>
      <use xlink:href="#DejaVuSans-72" transform="translate(77.001953 0)"/>
      <use xlink:href="#DejaVuSans-69" transform="translate(118.115234 0)"/>
      <use xlink:href="#DejaVuSans-76" transform="translate(145.898438 0)"/>
      <use xlink:href="#DejaVuSans-65" transform="translate(205.078125 0)"/>
      <use xlink:href="#DejaVuSans-72" transform="translate(266.601562 0)"/>
      <use xlink:href="#DejaVuSans-73" transform="translate(307.714844 0)"/>
      <use xlink:href="#DejaVuSans-20" transform="translate(359.814453 0)"/>
      <use xlink:href="#DejaVuSans-70" transform="translate(391.601562 0)"/>
      <use xlink:href="#DejaVuSans-65" transform="translate(455.078125 0)"/>
      <use xlink:href="#DejaVuSans-72" transform="translate(516.601562 0)"/>
      <use xlink:href="#DejaVuSans-20" transform="translate(557.714844 0)"/>
      <use xlink:href="#DejaVuSans-50" transform="translate(589.501953 0)"/>
      <use xlink:href="#DejaVuSans-6f" transform="translate(646.179688 0)"/>
      <use xlink:href="#DejaVuSans-77" transform="translate(707.361328 0)"/>
      <use xlink:href="#DejaVuSans-65" transform="translate(789.148438 0)"/>
      <use xlink:href="#DejaVuSans-72" transform="translate(850.671875 0)"/>
      <use xlink:href="#DejaVuSans-20" transform="translate(891.785156 0)"/>
      <use xlink:href="#DejaVuSans-55" transform="translate(923.572266 0)"/>
      <use xlink:href="#DejaVuSans-6e" transform="translate(996.765625 0)"/>
      <use xlink:href="#DejaVuSans-69" transform="translate(1060.144531 0)"/>
      <use xlink:href="#DejaVuSans-74" transform="translate(1087.927734 0)"/>
     </g>
    </g>
   </g>
   <g id="matplotlib.axis_2">
    <g id="ytick_1">
     <g id="line2d_7">
      <defs>
       <path id="mb3fd17eb62" d="M 0 0 
L -3.5 0 
" style="stroke: #000000; stroke-width: 0.8"/>
      </defs>
      <g>
       <use xlink:href="#mb3fd17eb62" x="45.478125" y="231.516307" style="stroke: #000000; stroke-width: 0.8"/>
      </g>
     </g>
     <g id="text_8">
      <!-- $\mathdefault{10^{0}}$ -->
      <g transform="translate(20.878125 235.315526) scale(0.1 -0.1)">
       <use xlink:href="#DejaVuSans-31" transform="translate(0 0.765625)"/>
       <use xlink:href="#DejaVuSans-30" transform="translate(63.623047 0.765625)"/>
       <use xlink:href="#DejaVuSans-30" transform="translate(128.203125 39.046875) scale(0.7)"/>
      </g>
     </g>
    </g>
    <g id="ytick_2">
     <g id="line2d_8">
      <g>
       <use xlink:href="#mb3fd17eb62" x="45.478125" y="199.855839" style="stroke: #000000; stroke-width: 0.8"/>
      </g>
     </g>
     <g id="text_9">
      <!-- $\mathdefault{10^{1}}$ -->
      <g transform="translate(20.878125 203.655058) scale(0.1 -0.1)">
       <use xlink:href="#DejaVuSans-31" transform="translate(0 0.684375)"/>
       <use xlink:href="#DejaVuSans-30" transform="translate(63.623047 0.684375)"/>
       <use xlink:href="#DejaVuSans-31" transform="translate(128.203125 38.965625) scale(0.7)"/>
      </g>
     </g>
    </g>
    <g id="ytick_3">
     <g id="line2d_9">
      <g>
       <use xlink:href="#mb3fd17eb62" x="45.478125" y="168.195372" style="stroke: #000000; stroke-width: 0.8"/>
      </g>
     </g>
     <g id="text_10">
      <!-- $\mathdefault{10^{2}}$ -->
      <g transform="translate(20.878125 171.994591) scale(0.1 -0.1)">
       <use xlink:href="#DejaVuSans-31" transform="translate(0 0.765625)"/>
       <use xlink:href="#DejaVuSans-30" transform="translate(63.623047 0.765625)"/>
       <use xlink:href="#DejaVuSans-32" transform="translate(128.203125 39.046875) scale(0.7)"/>
      </g>
     </g>
    </g>
    <g id="ytick_4">
     <g id="line2d_10">
      <g>
       <use xlink:href="#mb3fd17eb62" x="45.478125" y="136.534905" style="stroke: #000000; stroke-width: 0.8"/>
      </g>
     </g>
     <g id="text_11">
      <!-- $\mathdefault{10^{3}}$ -->
      <g transform="translate(20.878125 140.334123) scale(0.1 -0.1)">
       <defs>
        <path id="DejaVuSans-33" d="M 2597 2516 
Q 3050 2419 3304 2112 
Q 3559 1806 3559 1356 
Q 3559 666 3084 287 
Q 2609 -91 1734 -91 
Q 1441 -91 1130 -33 
Q 819 25 488 141 
L 488 750 
Q 750 597 1062 519 
Q 1375 441 1716 441 
Q 2309 441 2620 675 
Q 2931 909 2931 1356 
Q 2931 1769 2642 2001 
Q 2353 2234 1838 2234 
L 1294 2234 
L 1294 2753 
L 1863 2753 
Q 2328 2753 2575 2939 
Q 2822 3125 2822 3475 
Q 2822 3834 2567 4026 
Q 2313 4219 1838 4219 
Q 1578 4219 1281 4162 
Q 984 4106 628 3988 
L 628 4550 
Q 988 4650 1302 4700 
Q 1616 4750 1894 4750 
Q 2613 4750 3031 4423 
Q 3450 4097 3450 3541 
Q 3450 3153 3228 2886 
Q 3006 2619 2597 2516 
z
" transform="scale(0.015625)"/>
       </defs>
       <use xlink:href="#DejaVuSans-31" transform="translate(0 0.765625)"/>
       <use xlink:href="#DejaVuSans-30" transform="translate(63.623047 0.765625)"/>
       <use xlink:href="#DejaVuSans-33" transform="translate(128.203125 39.046875) scale(0.7)"/>
      </g>
     </g>
    </g>
    <g id="ytick_5">
     <g id="line2d_11">
      <g>
       <use xlink:href="#mb3fd17eb62" x="45.478125" y="104.874437" style="stroke: #000000; stroke-width: 0.8"/>
      </g>
     </g>
     <g id="text_12">
      <!-- $\mathdefault{10^{4}}$ -->
      <g transform="translate(20.878125 108.673656) scale(0.1 -0.1)">
       <use xlink:href="#DejaVuSans-31" transform="translate(0 0.684375)"/>
       <use xlink:href="#DejaVuSans-30" transform="translate(63.623047 0.684375)"/>
       <use xlink:href="#DejaVuSans-34" transform="translate(128.203125 38.965625) scale(0.7)"/>
      </g>
     </g>
    </g>
    <g id="ytick_6">
     <g id="line2d_12">
      <g>
       <use xlink:href="#mb3fd17eb62" x="45.478125" y="73.21397" style="stroke: #000000; stroke-width: 0.8"/>
      </g>
     </g>
     <g id="text_13">
      <!-- $\mathdefault{10^{5}}$ -->
      <g transform="translate(20.878125 77.013189) scale(0.1 -0.1)">
       <defs>
        <path id="DejaVuSans-35" d="M 691 4666 
L 3169 4666 
L 3169 4134 
L 1269 4134 
L 1269 2991 
Q 1406 3038 1543 3061 
Q 1681 3084 1819 3084 
Q 2600 3084 3056 2656 
Q 3513 2228 3513 1497 
Q 3513 744 3044 326 
Q 2575 -91 1722 -91 
Q 1428 -91 1123 -41 
Q 819 9 494 109 
L 494 744 
Q 775 591 1075 516 
Q 1375 441 1709 441 
Q 2250 441 2565 725 
Q 2881 1009 2881 1497 
Q 2881 1984 2565 2268 
Q 2250 2553 1709 2553 
Q 1456 2553 1204 2497 
Q 953 2441 691 2322 
L 691 4666 
z
" transform="scale(0.015625)"/>
       </defs>
       <use xlink:href="#DejaVuSans-31" transform="translate(0 0.684375)"/>
       <use xlink:href="#DejaVuSans-30" transform="translate(63.623047 0.684375)"/>
       <use xlink:href="#DejaVuSans-35" transform="translate(128.203125 38.965625) scale(0.7)"/>
      </g>
     </g>
    </g>
    <g id="ytick_7">
     <g id="line2d_13">
      <g>
       <use xlink:href="#mb3fd17eb62" x="45.478125" y="41.553502" style="stroke: #000000; stroke-width: 0.8"/>
      </g>
     </g>
     <g id="text_14">
      <!-- $\mathdefault{10^{6}}$ -->
      <g transform="translate(20.878125 45.352721) scale(0.1 -0.1)">
       <use xlink:href="#DejaVuSans-31" transform="translate(0 0.765625)"/>
       <use xlink:href="#DejaVuSans-30" transform="translate(63.623047 0.765625)"/>
       <use xlink:href="#DejaVuSans-36" transform="translate(128.203125 39.046875) scale(0.7)"/>
      </g>
     </g>
    </g>
    <g id="ytick_8">
     <g id="line2d_14">
      <defs>
       <path id="mdc2fd54270" d="M 0 0 
L -2 0 
" style="stroke: #000000; stroke-width: 0.6"/>
      </defs>
      <g>
       <use xlink:href="#mdc2fd54270" x="45.478125" y="241.047057" style="stroke: #000000; stroke-width: 0.6"/>
      </g>
     </g>
    </g>
    <g id="ytick_9">
     <g id="line2d_15">
      <g>
       <use xlink:href="#mdc2fd54270" x="45.478125" y="238.540142" style="stroke: #000000; stroke-width: 0.6"/>
      </g>
     </g>
    </g>
    <g id="ytick_10">
     <g id="line2d_16">
      <g>
       <use xlink:href="#mdc2fd54270" x="45.478125" y="236.420575" style="stroke: #000000; stroke-width: 0.6"/>
      </g>
     </g>
    </g>
    <g id="ytick_11">
     <g id="line2d_17">
      <g>
       <use xlink:href="#mdc2fd54270" x="45.478125" y="234.584523" style="stroke: #000000; stroke-width: 0.6"/>
      </g>
     </g>
    </g>
    <g id="ytick_12">
     <g id="line2d_18">
      <g>
       <use xlink:href="#mdc2fd54270" x="45.478125" y="232.96501" style="stroke: #000000; stroke-width: 0.6"/>
      </g>
     </g>
    </g>
    <g id="ytick_13">
     <g id="line2d_19">
      <g>
       <use xlink:href="#mdc2fd54270" x="45.478125" y="221.985556" style="stroke: #000000; stroke-width: 0.6"/>
      </g>
     </g>
    </g>
    <g id="ytick_14">
     <g id="line2d_20">
      <g>
       <use xlink:href="#mdc2fd54270" x="45.478125" y="216.410425" style="stroke: #000000; stroke-width: 0.6"/>
      </g>
     </g>
    </g>
    <g id="ytick_15">
     <g id="line2d_21">
      <g>
       <use xlink:href="#mdc2fd54270" x="45.478125" y="212.454806" style="stroke: #000000; stroke-width: 0.6"/>
      </g>
     </g>
    </g>
    <g id="ytick_16">
     <g id="line2d_22">
      <g>
       <use xlink:href="#mdc2fd54270" x="45.478125" y="209.38659" style="stroke: #000000; stroke-width: 0.6"/>
      </g>
     </g>
    </g>
    <g id="ytick_17">
     <g id="line2d_23">
      <g>
       <use xlink:href="#mdc2fd54270" x="45.478125" y="206.879675" style="stroke: #000000; stroke-width: 0.6"/>
      </g>
     </g>
    </g>
    <g id="ytick_18">
     <g id="line2d_24">
      <g>
       <use xlink:href="#mdc2fd54270" x="45.478125" y="204.760108" style="stroke: #000000; stroke-width: 0.6"/>
      </g>
     </g>
    </g>
    <g id="ytick_19">
     <g id="line2d_25">
      <g>
       <use xlink:href="#mdc2fd54270" x="45.478125" y="202.924056" style="stroke: #000000; stroke-width: 0.6"/>
      </g>
     </g>
    </g>
    <g id="ytick_20">
     <g id="line2d_26">
      <g>
       <use xlink:href="#mdc2fd54270" x="45.478125" y="201.304543" style="stroke: #000000; stroke-width: 0.6"/>
      </g>
     </g>
    </g>
    <g id="ytick_21">
     <g id="line2d_27">
      <g>
       <use xlink:href="#mdc2fd54270" x="45.478125" y="190.325089" style="stroke: #000000; stroke-width: 0.6"/>
      </g>
     </g>
    </g>
    <g id="ytick_22">
     <g id="line2d_28">
      <g>
       <use xlink:href="#mdc2fd54270" x="45.478125" y="184.749958" style="stroke: #000000; stroke-width: 0.6"/>
      </g>
     </g>
    </g>
    <g id="ytick_23">
     <g id="line2d_29">
      <g>
       <use xlink:href="#mdc2fd54270" x="45.478125" y="180.794339" style="stroke: #000000; stroke-width: 0.6"/>
      </g>
     </g>
    </g>
    <g id="ytick_24">
     <g id="line2d_30">
      <g>
       <use xlink:href="#mdc2fd54270" x="45.478125" y="177.726122" style="stroke: #000000; stroke-width: 0.6"/>
      </g>
     </g>
    </g>
    <g id="ytick_25">
     <g id="line2d_31">
      <g>
       <use xlink:href="#mdc2fd54270" x="45.478125" y="175.219207" style="stroke: #000000; stroke-width: 0.6"/>
      </g>
     </g>
    </g>
    <g id="ytick_26">
     <g id="line2d_32">
      <g>
       <use xlink:href="#mdc2fd54270" x="45.478125" y="173.09964" style="stroke: #000000; stroke-width: 0.6"/>
      </g>
     </g>
    </g>
    <g id="ytick_27">
     <g id="line2d_33">
      <g>
       <use xlink:href="#mdc2fd54270" x="45.478125" y="171.263588" style="stroke: #000000; stroke-width: 0.6"/>
      </g>
     </g>
    </g>
    <g id="ytick_28">
     <g id="line2d_34">
      <g>
       <use xlink:href="#mdc2fd54270" x="45.478125" y="169.644076" style="stroke: #000000; stroke-width: 0.6"/>
      </g>
     </g>
    </g>
    <g id="ytick_29">
     <g id="line2d_35">
      <g>
       <use xlink:href="#mdc2fd54270" x="45.478125" y="158.664622" style="stroke: #000000; stroke-width: 0.6"/>
      </g>
     </g>
    </g>
    <g id="ytick_30">
     <g id="line2d_36">
      <g>
       <use xlink:href="#mdc2fd54270" x="45.478125" y="153.08949" style="stroke: #000000; stroke-width: 0.6"/>
      </g>
     </g>
    </g>
    <g id="ytick_31">
     <g id="line2d_37">
      <g>
       <use xlink:href="#mdc2fd54270" x="45.478125" y="149.133871" style="stroke: #000000; stroke-width: 0.6"/>
      </g>
     </g>
    </g>
    <g id="ytick_32">
     <g id="line2d_38">
      <g>
       <use xlink:href="#mdc2fd54270" x="45.478125" y="146.065655" style="stroke: #000000; stroke-width: 0.6"/>
      </g>
     </g>
    </g>
    <g id="ytick_33">
     <g id="line2d_39">
      <g>
       <use xlink:href="#mdc2fd54270" x="45.478125" y="143.55874" style="stroke: #000000; stroke-width: 0.6"/>
      </g>
     </g>
    </g>
    <g id="ytick_34">
     <g id="line2d_40">
      <g>
       <use xlink:href="#mdc2fd54270" x="45.478125" y="141.439173" style="stroke: #000000; stroke-width: 0.6"/>
      </g>
     </g>
    </g>
    <g id="ytick_35">
     <g id="line2d_41">
      <g>
       <use xlink:href="#mdc2fd54270" x="45.478125" y="139.603121" style="stroke: #000000; stroke-width: 0.6"/>
      </g>
     </g>
    </g>
    <g id="ytick_36">
     <g id="line2d_42">
      <g>
       <use xlink:href="#mdc2fd54270" x="45.478125" y="137.983608" style="stroke: #000000; stroke-width: 0.6"/>
      </g>
     </g>
    </g>
    <g id="ytick_37">
     <g id="line2d_43">
      <g>
       <use xlink:href="#mdc2fd54270" x="45.478125" y="127.004154" style="stroke: #000000; stroke-width: 0.6"/>
      </g>
     </g>
    </g>
    <g id="ytick_38">
     <g id="line2d_44">
      <g>
       <use xlink:href="#mdc2fd54270" x="45.478125" y="121.429023" style="stroke: #000000; stroke-width: 0.6"/>
      </g>
     </g>
    </g>
    <g id="ytick_39">
     <g id="line2d_45">
      <g>
       <use xlink:href="#mdc2fd54270" x="45.478125" y="117.473404" style="stroke: #000000; stroke-width: 0.6"/>
      </g>
     </g>
    </g>
    <g id="ytick_40">
     <g id="line2d_46">
      <g>
       <use xlink:href="#mdc2fd54270" x="45.478125" y="114.405188" style="stroke: #000000; stroke-width: 0.6"/>
      </g>
     </g>
    </g>
    <g id="ytick_41">
     <g id="line2d_47">
      <g>
       <use xlink:href="#mdc2fd54270" x="45.478125" y="111.898272" style="stroke: #000000; stroke-width: 0.6"/>
      </g>
     </g>
    </g>
    <g id="ytick_42">
     <g id="line2d_48">
      <g>
       <use xlink:href="#mdc2fd54270" x="45.478125" y="109.778706" style="stroke: #000000; stroke-width: 0.6"/>
      </g>
     </g>
    </g>
    <g id="ytick_43">
     <g id="line2d_49">
      <g>
       <use xlink:href="#mdc2fd54270" x="45.478125" y="107.942654" style="stroke: #000000; stroke-width: 0.6"/>
      </g>
     </g>
    </g>
    <g id="ytick_44">
     <g id="line2d_50">
      <g>
       <use xlink:href="#mdc2fd54270" x="45.478125" y="106.323141" style="stroke: #000000; stroke-width: 0.6"/>
      </g>
     </g>
    </g>
    <g id="ytick_45">
     <g id="line2d_51">
      <g>
       <use xlink:href="#mdc2fd54270" x="45.478125" y="95.343687" style="stroke: #000000; stroke-width: 0.6"/>
      </g>
     </g>
    </g>
    <g id="ytick_46">
     <g id="line2d_52">
      <g>
       <use xlink:href="#mdc2fd54270" x="45.478125" y="89.768555" style="stroke: #000000; stroke-width: 0.6"/>
      </g>
     </g>
    </g>
    <g id="ytick_47">
     <g id="line2d_53">
      <g>
       <use xlink:href="#mdc2fd54270" x="45.478125" y="85.812937" style="stroke: #000000; stroke-width: 0.6"/>
      </g>
     </g>
    </g>
    <g id="ytick_48">
     <g id="line2d_54">
      <g>
       <use xlink:href="#mdc2fd54270" x="45.478125" y="82.74472" style="stroke: #000000; stroke-width: 0.6"/>
      </g>
     </g>
    </g>
    <g id="ytick_49">
     <g id="line2d_55">
      <g>
       <use xlink:href="#mdc2fd54270" x="45.478125" y="80.237805" style="stroke: #000000; stroke-width: 0.6"/>
      </g>
     </g>
    </g>
    <g id="ytick_50">
     <g id="line2d_56">
      <g>
       <use xlink:href="#mdc2fd54270" x="45.478125" y="78.118238" style="stroke: #000000; stroke-width: 0.6"/>
      </g>
     </g>
    </g>
    <g id="ytick_51">
     <g id="line2d_57">
      <g>
       <use xlink:href="#mdc2fd54270" x="45.478125" y="76.282186" style="stroke: #000000; stroke-width: 0.6"/>
      </g>
     </g>
    </g>
    <g id="ytick_52">
     <g id="line2d_58">
      <g>
       <use xlink:href="#mdc2fd54270" x="45.478125" y="74.662673" style="stroke: #000000; stroke-width: 0.6"/>
      </g>
     </g>
    </g>
    <g id="ytick_53">
     <g id="line2d_59">
      <g>
       <use xlink:href="#mdc2fd54270" x="45.478125" y="63.68322" style="stroke: #000000; stroke-width: 0.6"/>
      </g>
     </g>
    </g>
    <g id="ytick_54">
     <g id="line2d_60">
      <g>
       <use xlink:href="#mdc2fd54270" x="45.478125" y="58.108088" style="stroke: #000000; stroke-width: 0.6"/>
      </g>
     </g>
    </g>
    <g id="ytick_55">
     <g id="line2d_61">
      <g>
       <use xlink:href="#mdc2fd54270" x="45.478125" y="54.152469" style="stroke: #000000; stroke-width: 0.6"/>
      </g>
     </g>
    </g>
    <g id="ytick_56">
     <g id="line2d_62">
      <g>
       <use xlink:href="#mdc2fd54270" x="45.478125" y="51.084253" style="stroke: #000000; stroke-width: 0.6"/>
      </g>
     </g>
    </g>
    <g id="ytick_57">
     <g id="line2d_63">
      <g>
       <use xlink:href="#mdc2fd54270" x="45.478125" y="48.577338" style="stroke: #000000; stroke-width: 0.6"/>
      </g>
     </g>
    </g>
    <g id="ytick_58">
     <g id="line2d_64">
      <g>
       <use xlink:href="#mdc2fd54270" x="45.478125" y="46.457771" style="stroke: #000000; stroke-width: 0.6"/>
      </g>
     </g>
    </g>
    <g id="ytick_59">
     <g id="line2d_65">
      <g>
       <use xlink:href="#mdc2fd54270" x="45.478125" y="44.621719" style="stroke: #000000; stroke-width: 0.6"/>
      </g>
     </g>
    </g>
    <g id="ytick_60">
     <g id="line2d_66">
      <g>
       <use xlink:href="#mdc2fd54270" x="45.478125" y="43.002206" style="stroke: #000000; stroke-width: 0.6"/>
      </g>
     </g>
    </g>
    <g id="ytick_61">
     <g id="line2d_67">
      <g>
       <use xlink:href="#mdc2fd54270" x="45.478125" y="32.022752" style="stroke: #000000; stroke-width: 0.6"/>
      </g>
     </g>
    </g>
    <g id="ytick_62">
     <g id="line2d_68">
      <g>
       <use xlink:href="#mdc2fd54270" x="45.478125" y="26.447621" style="stroke: #000000; stroke-width: 0.6"/>
      </g>
     </g>
    </g>
    <g id="ytick_63">
     <g id="line2d_69">
      <g>
       <use xlink:href="#mdc2fd54270" x="45.478125" y="22.492002" style="stroke: #000000; stroke-width: 0.6"/>
      </g>
     </g>
    </g>
    <g id="text_15">
     <!-- Frequency (log scale) -->
     <g transform="translate(14.798438 185.31375) rotate(-90) scale(0.1 -0.1)">
      <defs>
       <path id="DejaVuSans-46" d="M 628 4666 
L 3309 4666 
L 3309 4134 
L 1259 4134 
L 1259 2759 
L 3109 2759 
L 3109 2228 
L 1259 2228 
L 1259 0 
L 628 0 
L 628 4666 
z
" transform="scale(0.015625)"/>
       <path id="DejaVuSans-71" d="M 947 1747 
Q 947 1113 1208 752 
Q 1469 391 1925 391 
Q 2381 391 2643 752 
Q 2906 1113 2906 1747 
Q 2906 2381 2643 2742 
Q 2381 3103 1925 3103 
Q 1469 3103 1208 2742 
Q 947 2381 947 1747 
z
M 2906 525 
Q 2725 213 2448 61 
Q 2172 -91 1784 -91 
Q 1150 -91 751 415 
Q 353 922 353 1747 
Q 353 2572 751 3078 
Q 1150 3584 1784 3584 
Q 2172 3584 2448 3432 
Q 2725 3281 2906 2969 
L 2906 3500 
L 3481 3500 
L 3481 -1331 
L 2906 -1331 
L 2906 525 
z
" transform="scale(0.015625)"/>
       <path id="DejaVuSans-75" d="M 544 1381 
L 544 3500 
L 1119 3500 
L 1119 1403 
Q 1119 906 1312 657 
Q 1506 409 1894 409 
Q 2359 409 2629 706 
Q 2900 1003 2900 1516 
L 2900 3500 
L 3475 3500 
L 3475 0 
L 2900 0 
L 2900 538 
Q 2691 219 2414 64 
Q 2138 -91 1772 -91 
Q 1169 -91 856 284 
Q 544 659 544 1381 
z
M 1991 3584 
L 1991 3584 
z
" transform="scale(0.015625)"/>
       <path id="DejaVuSans-63" d="M 3122 3366 
L 3122 2828 
Q 2878 2963 2633 3030 
Q 2388 3097 2138 3097 
Q 1578 3097 1268 2742 
Q 959 2388 959 1747 
Q 959 1106 1268 751 
Q 1578 397 2138 397 
Q 2388 397 2633 464 
Q 2878 531 3122 666 
L 3122 134 
Q 2881 22 2623 -34 
Q 2366 -91 2075 -91 
Q 1284 -91 818 406 
Q 353 903 353 1747 
Q 353 2603 823 3093 
Q 1294 3584 2113 3584 
Q 2378 3584 2631 3529 
Q 2884 3475 3122 3366 
z
" transform="scale(0.015625)"/>
       <path id="DejaVuSans-79" d="M 2059 -325 
Q 1816 -950 1584 -1140 
Q 1353 -1331 966 -1331 
L 506 -1331 
L 506 -850 
L 844 -850 
Q 1081 -850 1212 -737 
Q 1344 -625 1503 -206 
L 1606 56 
L 191 3500 
L 800 3500 
L 1894 763 
L 2988 3500 
L 3597 3500 
L 2059 -325 
z
" transform="scale(0.015625)"/>
       <path id="DejaVuSans-28" d="M 1984 4856 
Q 1566 4138 1362 3434 
Q 1159 2731 1159 2009 
Q 1159 1288 1364 580 
Q 1569 -128 1984 -844 
L 1484 -844 
Q 1016 -109 783 600 
Q 550 1309 550 2009 
Q 550 2706 781 3412 
Q 1013 4119 1484 4856 
L 1984 4856 
z
" transform="scale(0.015625)"/>
       <path id="DejaVuSans-6c" d="M 603 4863 
L 1178 4863 
L 1178 0 
L 603 0 
L 603 4863 
z
" transform="scale(0.015625)"/>
       <path id="DejaVuSans-67" d="M 2906 1791 
Q 2906 2416 2648 2759 
Q 2391 3103 1925 3103 
Q 1463 3103 1205 2759 
Q 947 2416 947 1791 
Q 947 1169 1205 825 
Q 1463 481 1925 481 
Q 2391 481 2648 825 
Q 2906 1169 2906 1791 
z
M 3481 434 
Q 3481 -459 3084 -895 
Q 2688 -1331 1869 -1331 
Q 1566 -1331 1297 -1286 
Q 1028 -1241 775 -1147 
L 775 -588 
Q 1028 -725 1275 -790 
Q 1522 -856 1778 -856 
Q 2344 -856 2625 -561 
Q 2906 -266 2906 331 
L 2906 616 
Q 2728 306 2450 153 
Q 2172 0 1784 0 
Q 1141 0 747 490 
Q 353 981 353 1791 
Q 353 2603 747 3093 
Q 1141 3584 1784 3584 
Q 2172 3584 2450 3431 
Q 2728 3278 2906 2969 
L 2906 3500 
L 3481 3500 
L 3481 434 
z
" transform="scale(0.015625)"/>
       <path id="DejaVuSans-61" d="M 2194 1759 
Q 1497 1759 1228 1600 
Q 959 1441 959 1056 
Q 959 750 1161 570 
Q 1363 391 1709 391 
Q 2188 391 2477 730 
Q 2766 1069 2766 1631 
L 2766 1759 
L 2194 1759 
z
M 3341 1997 
L 3341 0 
L 2766 0 
L 2766 531 
Q 2569 213 2275 61 
Q 1981 -91 1556 -91 
Q 1019 -91 701 211 
Q 384 513 384 1019 
Q 384 1609 779 1909 
Q 1175 2209 1959 2209 
L 2766 2209 
L 2766 2266 
Q 2766 2663 2505 2880 
Q 2244 3097 1772 3097 
Q 1472 3097 1187 3025 
Q 903 2953 641 2809 
L 641 3341 
Q 956 3463 1253 3523 
Q 1550 3584 1831 3584 
Q 2591 3584 2966 3190 
Q 3341 2797 3341 1997 
z
" transform="scale(0.015625)"/>
       <path id="DejaVuSans-29" d="M 513 4856 
L 1013 4856 
Q 1481 4119 1714 3412 
Q 1947 2706 1947 2009 
Q 1947 1309 1714 600 
Q 1481 -109 1013 -844 
L 513 -844 
Q 928 -128 1133 580 
Q 1338 1288 1338 2009 
Q 1338 2731 1133 3434 
Q 928 4138 513 4856 
z
" transform="scale(0.015625)"/>
      </defs>
      <use xlink:href="#DejaVuSans-46"/>
      <use xlink:href="#DejaVuSans-72" transform="translate(50.269531 0)"/>
      <use xlink:href="#DejaVuSans-65" transform="translate(89.132812 0)"/>
      <use xlink:href="#DejaVuSans-71" transform="translate(150.65625 0)"/>
      <use xlink:href="#DejaVuSans-75" transform="translate(214.132812 0)"/>
      <use xlink:href="#DejaVuSans-65" transform="translate(277.511719 0)"/>
      <use xlink:href="#DejaVuSans-6e" transform="translate(339.035156 0)"/>
      <use xlink:href="#DejaVuSans-63" transform="translate(402.414062 0)"/>
      <use xlink:href="#DejaVuSans-79" transform="translate(457.394531 0)"/>
      <use xlink:href="#DejaVuSans-20" transform="translate(516.574219 0)"/>
      <use xlink:href="#DejaVuSans-28" transform="translate(548.361328 0)"/>
      <use xlink:href="#DejaVuSans-6c" transform="translate(587.375 0)"/>
      <use xlink:href="#DejaVuSans-6f" transform="translate(615.158203 0)"/>
      <use xlink:href="#DejaVuSans-67" transform="translate(676.339844 0)"/>
      <use xlink:href="#DejaVuSans-20" transform="translate(739.816406 0)"/>
      <use xlink:href="#DejaVuSans-73" transform="translate(771.603516 0)"/>
      <use xlink:href="#DejaVuSans-63" transform="translate(823.703125 0)"/>
      <use xlink:href="#DejaVuSans-61" transform="translate(878.683594 0)"/>
      <use xlink:href="#DejaVuSans-6c" transform="translate(939.962891 0)"/>
      <use xlink:href="#DejaVuSans-65" transform="translate(967.746094 0)"/>
      <use xlink:href="#DejaVuSans-29" transform="translate(1029.269531 0)"/>
     </g>
    </g>
   </g>
   <g id="patch_103">
    <path d="M 45.478125 241.478125 
L 45.478125 22.318125 
" style="fill: none; stroke: #000000; stroke-width: 0.8; stroke-linejoin: miter; stroke-linecap: square"/>
   </g>
   <g id="patch_104">
    <path d="M 704.54044 241.478125 
L 704.54044 22.318125 
" style="fill: none; stroke: #000000; stroke-width: 0.8; stroke-linejoin: miter; stroke-linecap: square"/>
   </g>
   <g id="patch_105">
    <path d="M 45.478125 241.478125 
L 704.54044 241.478125 
" style="fill: none; stroke: #000000; stroke-width: 0.8; stroke-linejoin: miter; stroke-linecap: square"/>
   </g>
   <g id="patch_106">
    <path d="M 45.478125 22.318125 
L 704.54044 22.318125 
" style="fill: none; stroke: #000000; stroke-width: 0.8; stroke-linejoin: miter; stroke-linecap: square"/>
   </g>
   <g id="text_16">
    <!-- Histogram of Driver-to-Power-Unit Ratio (log scale) -->
    <g transform="translate(223.198033 16.318125) scale(0.12 -0.12)">
     <defs>
      <path id="DejaVuSans-48" d="M 628 4666 
L 1259 4666 
L 1259 2753 
L 3553 2753 
L 3553 4666 
L 4184 4666 
L 4184 0 
L 3553 0 
L 3553 2222 
L 1259 2222 
L 1259 0 
L 628 0 
L 628 4666 
z
" transform="scale(0.015625)"/>
      <path id="DejaVuSans-6d" d="M 3328 2828 
Q 3544 3216 3844 3400 
Q 4144 3584 4550 3584 
Q 5097 3584 5394 3201 
Q 5691 2819 5691 2113 
L 5691 0 
L 5113 0 
L 5113 2094 
Q 5113 2597 4934 2840 
Q 4756 3084 4391 3084 
Q 3944 3084 3684 2787 
Q 3425 2491 3425 1978 
L 3425 0 
L 2847 0 
L 2847 2094 
Q 2847 2600 2669 2842 
Q 2491 3084 2119 3084 
Q 1678 3084 1418 2786 
Q 1159 2488 1159 1978 
L 1159 0 
L 581 0 
L 581 3500 
L 1159 3500 
L 1159 2956 
Q 1356 3278 1631 3431 
Q 1906 3584 2284 3584 
Q 2666 3584 2933 3390 
Q 3200 3197 3328 2828 
z
" transform="scale(0.015625)"/>
      <path id="DejaVuSans-66" d="M 2375 4863 
L 2375 4384 
L 1825 4384 
Q 1516 4384 1395 4259 
Q 1275 4134 1275 3809 
L 1275 3500 
L 2222 3500 
L 2222 3053 
L 1275 3053 
L 1275 0 
L 697 0 
L 697 3053 
L 147 3053 
L 147 3500 
L 697 3500 
L 697 3744 
Q 697 4328 969 4595 
Q 1241 4863 1831 4863 
L 2375 4863 
z
" transform="scale(0.015625)"/>
      <path id="DejaVuSans-2d" d="M 313 2009 
L 1997 2009 
L 1997 1497 
L 313 1497 
L 313 2009 
z
" transform="scale(0.015625)"/>
      <path id="DejaVuSans-52" d="M 2841 2188 
Q 3044 2119 3236 1894 
Q 3428 1669 3622 1275 
L 4263 0 
L 3584 0 
L 2988 1197 
Q 2756 1666 2539 1819 
Q 2322 1972 1947 1972 
L 1259 1972 
L 1259 0 
L 628 0 
L 628 4666 
L 2053 4666 
Q 2853 4666 3247 4331 
Q 3641 3997 3641 3322 
Q 3641 2881 3436 2590 
Q 3231 2300 2841 2188 
z
M 1259 4147 
L 1259 2491 
L 2053 2491 
Q 2509 2491 2742 2702 
Q 2975 2913 2975 3322 
Q 2975 3731 2742 3939 
Q 2509 4147 2053 4147 
L 1259 4147 
z
" transform="scale(0.015625)"/>
     </defs>
     <use xlink:href="#DejaVuSans-48"/>
     <use xlink:href="#DejaVuSans-69" transform="translate(75.195312 0)"/>
     <use xlink:href="#DejaVuSans-73" transform="translate(102.978516 0)"/>
     <use xlink:href="#DejaVuSans-74" transform="translate(155.078125 0)"/>
     <use xlink:href="#DejaVuSans-6f" transform="translate(194.287109 0)"/>
     <use xlink:href="#DejaVuSans-67" transform="translate(255.46875 0)"/>
     <use xlink:href="#DejaVuSans-72" transform="translate(318.945312 0)"/>
     <use xlink:href="#DejaVuSans-61" transform="translate(360.058594 0)"/>
     <use xlink:href="#DejaVuSans-6d" transform="translate(421.337891 0)"/>
     <use xlink:href="#DejaVuSans-20" transform="translate(518.75 0)"/>
     <use xlink:href="#DejaVuSans-6f" transform="translate(550.537109 0)"/>
     <use xlink:href="#DejaVuSans-66" transform="translate(611.71875 0)"/>
     <use xlink:href="#DejaVuSans-20" transform="translate(646.923828 0)"/>
     <use xlink:href="#DejaVuSans-44" transform="translate(678.710938 0)"/>
     <use xlink:href="#DejaVuSans-72" transform="translate(755.712891 0)"/>
     <use xlink:href="#DejaVuSans-69" transform="translate(796.826172 0)"/>
     <use xlink:href="#DejaVuSans-76" transform="translate(824.609375 0)"/>
     <use xlink:href="#DejaVuSans-65" transform="translate(883.789062 0)"/>
     <use xlink:href="#DejaVuSans-72" transform="translate(945.3125 0)"/>
     <use xlink:href="#DejaVuSans-2d" transform="translate(980.050781 0)"/>
     <use xlink:href="#DejaVuSans-74" transform="translate(1016.134766 0)"/>
     <use xlink:href="#DejaVuSans-6f" transform="translate(1055.34375 0)"/>
     <use xlink:href="#DejaVuSans-2d" transform="translate(1118.400391 0)"/>
     <use xlink:href="#DejaVuSans-50" transform="translate(1154.484375 0)"/>
     <use xlink:href="#DejaVuSans-6f" transform="translate(1211.162109 0)"/>
     <use xlink:href="#DejaVuSans-77" transform="translate(1272.34375 0)"/>
     <use xlink:href="#DejaVuSans-65" transform="translate(1354.130859 0)"/>
     <use xlink:href="#DejaVuSans-72" transform="translate(1415.654297 0)"/>
     <use xlink:href="#DejaVuSans-2d" transform="translate(1450.392578 0)"/>
     <use xlink:href="#DejaVuSans-55" transform="translate(1486.476562 0)"/>
     <use xlink:href="#DejaVuSans-6e" transform="translate(1559.669922 0)"/>
     <use xlink:href="#DejaVuSans-69" transform="translate(1623.048828 0)"/>
     <use xlink:href="#DejaVuSans-74" transform="translate(1650.832031 0)"/>
     <use xlink:href="#DejaVuSans-20" transform="translate(1690.041016 0)"/>
     <use xlink:href="#DejaVuSans-52" transform="translate(1721.828125 0)"/>
     <use xlink:href="#DejaVuSans-61" transform="translate(1789.060547 0)"/>
     <use xlink:href="#DejaVuSans-74" transform="translate(1850.339844 0)"/>
     <use xlink:href="#DejaVuSans-69" transform="translate(1889.548828 0)"/>
     <use xlink:href="#DejaVuSans-6f" transform="translate(1917.332031 0)"/>
     <use xlink:href="#DejaVuSans-20" transform="translate(1978.513672 0)"/>
     <use xlink:href="#DejaVuSans-28" transform="translate(2010.300781 0)"/>
     <use xlink:href="#DejaVuSans-6c" transform="translate(2049.314453 0)"/>
     <use xlink:href="#DejaVuSans-6f" transform="translate(2077.097656 0)"/>
     <use xlink:href="#DejaVuSans-67" transform="translate(2138.279297 0)"/>
     <use xlink:href="#DejaVuSans-20" transform="translate(2201.755859 0)"/>
     <use xlink:href="#DejaVuSans-73" transform="translate(2233.542969 0)"/>
     <use xlink:href="#DejaVuSans-63" transform="translate(2285.642578 0)"/>
     <use xlink:href="#DejaVuSans-61" transform="translate(2340.623047 0)"/>
     <use xlink:href="#DejaVuSans-6c" transform="translate(2401.902344 0)"/>
     <use xlink:href="#DejaVuSans-65" transform="translate(2429.685547 0)"/>
     <use xlink:href="#DejaVuSans-29" transform="translate(2491.208984 0)"/>
    </g>
   </g>
  </g>
 </g>
 <defs>
  <clipPath id="p9fcd285dd4">
   <rect x="45.478125" y="22.318125" width="659.062315" height="219.16"/>
  </clipPath>
 </defs>
</svg>
